#!OML:ASF I:\Actors\actors\Patient Classification 2\Patient 1\Session 1\actor1.ASF
:FULLY-SPECIFIED
:DEGREES
986
root -1.32083 18.7841 5.09426 6.47698 2.02823 -2.25943
lowerback 25.2099 -0.93613 1.43665
upperback 9.8087 -0.771266 1.46427
thorax -3.16143 -0.374877 0.97151
lowerneck -19.3958 -1.64305 -0.984717
upperneck 17.9847 -2.10454 0.63626
head 8.84374 -0.981728 0.10291
rclavicle 9.93923e-017 8.59744e-015
rhumerus -13.882 59.5167 -109.186
rradius 135.481
rwrist 5.47066
rhand -42.183 -43.7276
rfingers 7.12502
rthumb -15.0715 -73.1589
lclavicle 9.93923e-017 8.59744e-015
lhumerus -22.4198 -56.3865 121.219
lradius 134.246
lwrist 11.5514
lhand -22.7312 299.21
lfingers 7.12502
lthumb 3.70267 -30.8428
rfemur -0.68718 -0.304668 18.6468
rtibia 7.95139e-016
rfoot -15.6893 -14.9369
rtoes -10.4572
lfemur -17.6953 -2.80595 -8.76114
ltibia 26.8306
lfoot -15.0249 7.17639
ltoes -58.4096
987
root -1.29306 18.7809 5.09404 6.53236 2.07416 -2.34609
lowerback 25.1664 -0.977379 1.48734
upperback 9.78222 -0.810375 1.50723
thorax -3.16914 -0.393906 0.99919
lowerneck -19.4141 -1.61687 -1.13186
upperneck 17.9436 -2.04184 0.711847
head 8.83492 -0.954403 0.161007
rclavicle 6.70898e-015 3.13086e-015
rhumerus -14.0998 59.8624 -109.366
rradius 135.206
rwrist 6.55067
rhand -42.5257 -44.0582
rfingers 7.12502
rthumb -15.4016 -73.4644
lclavicle 6.70898e-015 3.13086e-015
lhumerus -22.3632 -56.2456 121.249
lradius 134.169
lwrist 11.6617
lhand -22.757 297.818
lfingers 7.12502
lthumb 3.67776 -32.2341
rfemur -0.754135 -0.348255 18.6304
rtibia -3.97569e-015
rfoot -15.5927 -14.8954
rtoes -10.3033
lfemur -17.8423 -2.72547 -8.76789
ltibia 26.9435
lfoot -15.0784 7.10784
ltoes -58.2861
988
root -1.26092 18.7817 5.09505 6.54657 2.09619 -2.39031
lowerback 25.1404 -0.975496 1.51307
upperback 9.7226 -0.80139 1.51092
thorax -3.22253 -0.389158 0.986237
lowerneck -19.0963 -1.59746 -1.06392
upperneck 17.7861 -2.02766 0.669202
head 8.72332 -0.949302 0.140117
rclavicle 7.0817e-015 -1.54058e-014
rhumerus -14.0998 59.8624 -109.366
rradius 135.206
rwrist 6.55067
rhand -42.5257 -44.0582
rfingers 7.12502
rthumb -15.4016 -73.4644
lclavicle 7.0817e-015 -1.54058e-014
lhumerus -22.8298 -56.2655 121.645
lradius 133.984
lwrist 12.1727
lhand -22.9348 294.388
lfingers 7.12502
lthumb 3.50603 -35.6613
rfemur -0.763636 -0.373626 18.5397
rtibia 1.11319e-014
rfoot -15.5291 -14.8092
rtoes -9.84743
lfemur -17.9292 -2.68808 -8.82922
ltibia 27.0586
lfoot -15.1357 7.04978
ltoes -58.1158
989
root -1.22495 18.7844 5.09724 6.51055 2.13011 -2.39049
lowerback 25.284 -1.00648 1.6282
upperback 9.74253 -0.817216 1.39344
thorax -3.27297 -0.392064 0.799753
lowerneck -19.352 -1.58387 -0.855902
upperneck 17.9286 -2.07279 0.690278
head 8.81566 -0.952325 0.104919
rclavicle -7.1811e-015 -2.08724e-015
rhumerus -14.0998 59.8624 -109.366
rradius 135.206
rwrist 6.55067
rhand -42.5257 -44.0582
rfingers 7.12502
rthumb -15.4016 -73.4644
lclavicle -7.1811e-015 -2.08724e-015
lhumerus -22.9502 -56.4272 121.529
lradius 134.258
lwrist 11.6449
lhand -23.1926 298.703
lfingers 7.12502
lthumb 3.25708 -31.3422
rfemur -0.691969 -0.415362 18.387
rtibia 1.19271e-014
rfoot -15.5784 -14.6765
rtoes -8.99327
lfemur -17.9436 -2.61086 -8.95023
ltibia 27.1547
lfoot -15.1443 6.90773
ltoes -58.0191
990
root -1.18432 18.7877 5.10064 6.45819 2.18297 -2.37552
lowerback 25.5948 -1.13594 2.0765
upperback 9.60663 -0.887534 1.02405
thorax -3.58369 -0.411743 0.169049
lowerneck -19.286 -1.59031 -0.586032
upperneck 18.1303 -2.2334 1.00947
head 8.87553 -0.97248 0.14815
rclavicle 5.04416e-015 1.02623e-014
rhumerus -14.0998 59.8624 -109.366
rradius 135.206
rwrist 6.55067
rhand -42.5257 -44.0582
rfingers 7.12502
rthumb -15.4016 -73.4644
lclavicle 5.04416e-015 1.02623e-014
lhumerus -23.6273 -56.6552 121.558
lradius 134.288
lwrist 10.8092
lhand -24.2731 301.22
lfingers 7.12502
lthumb 2.21362 -28.8118
rfemur -0.596507 -0.477204 18.2134
rtibia -2.38542e-015
rfoot -15.6117 -14.6345
rtoes -9.57061
lfemur -17.9214 -2.50501 -9.10477
ltibia 27.2145
lfoot -15.0974 6.72335
ltoes -58.0428
991
root -1.13881 18.7912 5.10603 6.42465 2.22681 -2.31237
lowerback 25.6223 -1.0995 1.82958
upperback 9.67005 -0.891414 1.14373
thorax -3.52236 -0.419807 0.44073
lowerneck -19.3799 -1.58433 -0.713703
upperneck 18.2036 -2.19256 1.02747
head 8.91881 -0.959536 0.179676
rclavicle -7.9576e-015 -1.63997e-015
rhumerus -14.0998 59.8624 -109.366
rradius 135.206
rwrist 6.55067
rhand -42.5257 -44.0582
rfingers 7.12502
rthumb -15.4016 -73.4644
lclavicle -7.9576e-015 -1.63997e-015
lhumerus -23.4349 -56.6431 121.5
lradius 134.205
lwrist 10.3381
lhand -24.7951 300.796
lfingers 7.12502
lthumb 1.70949 -29.2309
rfemur -0.518655 -0.536329 17.9782
rtibia 1.59028e-015
rfoot -15.6099 -14.6673
rtoes -11.4881
lfemur -17.8894 -2.4396 -9.33557
ltibia 27.2552
lfoot -15.1124 6.55254
ltoes -58.0238
992
root -1.09005 18.7902 5.11179 6.40539 2.25771 -2.22031
lowerback 25.2945 -0.939769 1.17786
upperback 9.94509 -0.829267 1.53445
thorax -3.04725 -0.409528 1.211
lowerneck -19.5485 -1.5771 -0.902977
upperneck 18.086 -2.05946 0.734579
head 8.90553 -0.94314 0.127473
rclavicle -6.98231e-015 2.1916e-014
rhumerus -14.0998 59.8624 -109.366
rradius 135.206
rwrist 6.55067
rhand -42.5257 -44.0582
rfingers 7.12502
rthumb -15.4016 -73.4644
lclavicle -6.98231e-015 2.1916e-014
lhumerus -22.5277 -56.5712 121.145
lradius 134.192
lwrist 10.3336
lhand -24.8058 301.656
lfingers 7.12502
lthumb 1.69914 -28.371
rfemur -0.453911 -0.586201 17.7077
rtibia -3.18055e-015
rfoot -15.6302 -14.6896
rtoes -12.5327
lfemur -17.8641 -2.30866 -9.62006
ltibia 27.2992
lfoot -15.1941 6.31243
ltoes -57.9641
993
root -1.03719 18.7847 5.11787 6.37497 2.28434 -2.17502
lowerback 25.3464 -0.930035 1.2459
upperback 9.88049 -0.801948 1.47371
thorax -3.14566 -0.393116 1.1005
lowerneck -19.3433 -1.60026 -0.778279
upperneck 18.0813 -2.11227 0.658244
head 8.8656 -0.968273 0.0756006
rclavicle -1.37161e-014 6.60959e-015
rhumerus -14.0998 59.8624 -109.366
rradius 135.206
rwrist 6.55067
rhand -42.5257 -44.0582
rfingers 7.12502
rthumb -15.4016 -73.4644
lclavicle -1.37161e-014 6.60959e-015
lhumerus -22.6419 -56.472 121.048
lradius 134.259
lwrist 10.9325
lhand -23.8719 302.943
lfingers 7.12502
lthumb 2.60109 -27.0931
rfemur -0.382803 -0.62575 17.4861
rtibia 3.97569e-015
rfoot -15.6655 -14.7165
rtoes -12.8234
lfemur -17.8257 -2.17123 -9.86496
ltibia 27.346
lfoot -15.3643 6.06791
ltoes -57.8314
994
root -0.978534 18.7783 5.12474 6.35864 2.28583 -2.18211
lowerback 25.6287 -1.05039 1.88339
upperback 9.58036 -0.818763 1.06031
thorax -3.62594 -0.381964 0.300241
lowerneck -18.9197 -1.61123 -0.47945
upperneck 18.1825 -2.2611 0.85855
head 8.82531 -0.995853 0.0782743
rclavicle 4.03083e-015 -6.70898e-015
rhumerus -14.0998 59.8624 -109.366
rradius 135.206
rwrist 6.55067
rhand -42.5257 -44.0582
rfingers 7.12502
rthumb -15.4016 -73.4644
lclavicle 4.03083e-015 -6.70898e-015
lhumerus -23.6907 -56.4308 121.328
lradius 134.26
lwrist 12.8368
lhand -22.6116 298.086
lfingers 7.12502
lthumb 3.81818 -31.9687
rfemur -0.328666 -0.635226 17.3086
rtibia 1.11319e-014
rfoot -15.7436 -14.7472
rtoes -12.9078
lfemur -17.8039 -2.05185 -10.0791
ltibia 27.4074
lfoot -15.5981 5.89859
ltoes -57.6961
995
root -0.915892 18.7708 5.13242 6.35595 2.26068 -2.19068
lowerback 25.4709 -1.0143 1.92801
upperback 9.60487 -0.766657 1.07934
thorax -3.52255 -0.355587 0.278446
lowerneck -18.8061 -1.58248 -0.437025
upperneck 18.0651 -2.22381 0.818947
head 8.7636 -0.980971 0.064038
rclavicle 6.52262e-015 -1.08089e-014
rhumerus -14.0998 59.8624 -109.366
rradius 135.206
rwrist 6.55067
rhand -42.5257 -44.0582
rfingers 7.12502
rthumb -15.4016 -73.4644
lclavicle 6.52262e-015 -1.08089e-014
lhumerus -24.1243 -56.7661 121.704
lradius 133.988
lwrist 11.8181
lhand -24.45 296.093
lfingers 7.12502
lthumb 2.0428 -33.9367
rfemur -0.285939 -0.619376 17.1135
rtibia -1.19271e-014
rfoot -15.8128 -14.7959
rtoes -12.1492
lfemur -17.8237 -1.80229 -10.3276
ltibia 27.5012
lfoot -15.7653 5.66331
ltoes -57.5837
996
root -0.849997 18.7637 5.14033 6.36865 2.22935 -2.21095
lowerback 25.0841 -0.858901 1.48976
upperback 9.77798 -0.660846 1.47947
thorax -3.13563 -0.319059 0.926117
lowerneck -18.8436 -1.5391 -0.584703
upperneck 17.8508 -2.0361 0.434905
head 8.6927 -0.946262 -0.0172995
rclavicle 1.26725e-014 -1.05356e-014
rhumerus -14.0998 59.8624 -109.366
rradius 135.206
rwrist 6.55067
rhand -42.5257 -44.0582
rfingers 7.12502
rthumb -15.4016 -73.4644
lclavicle 1.26725e-014 -1.05356e-014
lhumerus -23.5367 -56.6405 121.632
lradius 133.921
lwrist 11.3535
lhand -24.8469 297.178
lfingers 7.12502
lthumb 1.65947 -32.849
rfemur -0.262945 -0.597917 16.9096
rtibia -4.77083e-015
rfoot -15.7772 -14.8602
rtoes -10.8338
lfemur -17.8836 -1.492 -10.5757
ltibia 27.62
lfoot -15.8749 5.40378
ltoes -57.4645
997
root -0.7815 18.7604 5.1465 6.43428 2.20529 -2.21241
lowerback 24.8621 -0.86338 1.4407
upperback 9.77266 -0.678659 1.57343
thorax -3.03223 -0.330778 1.05721
lowerneck -18.8145 -1.48841 -0.71314
upperneck 17.82 -1.90955 0.339857
head 8.67669 -0.906437 -0.0118877
rclavicle 5.91384e-015 -5.96354e-015
rhumerus -14.0998 59.8624 -109.366
rradius 135.206
rwrist 6.55067
rhand -42.5257 -44.0582
rfingers 7.12502
rthumb -15.4016 -73.4644
lclavicle 5.91384e-015 -5.96354e-015
lhumerus -23.4096 -56.095 121.308
lradius 134.203
lwrist 11.5705
lhand -23.5331 302.513
lfingers 7.12502
lthumb 2.92829 -27.527
rfemur -0.304241 -0.589837 16.6728
rtibia -4.77083e-015
rfoot -15.6664 -14.942
rtoes -10.4745
lfemur -18.0117 -1.20419 -10.8419
ltibia 27.7425
lfoot -15.9853 5.23841
ltoes -57.439
